<svg width="308.71336059570314px" height="93.81333465576172px" xmlns="http://www.w3.org/2000/svg" viewBox="95.64331970214843 28.09333267211914 308.71336059570314 93.81333465576172" style="background: none;" preserveAspectRatio="xMidYMid"><defs><filter id="editing-hover" x="-100%" y="-100%" width="300%" height="300%"><feFlood flood-color="#4ab19a" result="flood"></feFlood><feComposite operator="in" in2="SourceAlpha" in="flood" result="shadow"></feComposite><feOffset dx="-0.6" dy="-0.1" in="SourceGraphic" result="offset-1"></feOffset><feOffset dx="0.6" dy="0.1" in="shadow" result="offset-2"></feOffset><feMerge><feMergeNode in="offset-2"></feMergeNode><feMergeNode in="offset-1"></feMergeNode></feMerge></filter></defs><g filter="url(#editing-hover)"><g transform="translate(93.9350073337555, 99.29000091552734)"><path d="M12.54-26.11L12.54-26.11L12.54-26.11Q12.54-25.09 13.09-24.32L13.09-24.32L13.09-24.32Q13.63-23.55 14.08-23.23L14.08-23.23L14.08-23.23Q14.98-22.66 16.38-21.95L16.38-21.95L16.38-21.95Q17.15-21.38 16.70-21.25L16.70-21.25L16.70-21.25Q16.51-21.25 16.26-21.31L16.26-21.31L16.26-21.31Q14.72-21.63 12.99-23.17L12.99-23.17L12.99-23.17Q11.26-24.70 11.20-26.69L11.20-26.69L11.20-26.69Q11.01-27.39 11.01-27.90L11.01-27.90L11.01-27.90Q11.01-30.66 13.31-32.70L13.31-32.70L13.31-32.70Q17.60-36.35 26.94-36.35L26.94-36.35L26.94-36.35Q26.94-36.61 27.14-36.99L27.14-36.99L27.14-36.99Q27.26-37.76 29.12-37.76L29.12-37.76L29.12-37.76Q30.72-37.76 30.66-36.99L30.66-36.99L30.66-36.99Q30.40-36.48 30.34-36.16L30.34-36.16L30.34-36.16Q34.43-35.90 37.18-34.50L37.18-34.50L37.18-34.50Q38.08-34.05 38.50-33.41L38.50-33.41L38.50-33.41Q38.91-32.77 38.91-32.51L38.91-32.51L38.91-32.51Q38.91-31.94 36.58-32.74L36.58-32.74L36.58-32.74Q34.24-33.54 29.44-33.54L29.44-33.54L29.44-33.54Q29.12-32.19 27.23-26.75L27.23-26.75L27.23-26.75Q25.34-21.31 24.83-20L24.83-20L24.83-20Q24.32-18.69 23.42-16.35L23.42-16.35L23.42-16.35Q22.53-14.02 21.82-12.54L21.82-12.54L21.82-12.54Q21.12-11.07 20.22-9.22L20.22-9.22L20.22-9.22Q18.69-6.08 16.58-3.33L16.58-3.33L16.58-3.33Q14.98-1.47 14.14-0.83L14.14-0.83L14.14-0.83Q15.23-0.83 18.37-0.83L18.37-0.83L18.37-0.83Q21.50-0.83 23.87-0.99L23.87-0.99L23.87-0.99Q26.24-1.15 26.46-0.96L26.46-0.96L26.46-0.96Q26.69-0.77 26.50-0.51L26.50-0.51L26.50-0.51Q26.11 0.13 25.47 0.48L25.47 0.48L25.47 0.48Q24.83 0.83 16.06 1.09L16.06 1.09L16.06 1.09Q7.30 1.34 5.12 1.34L5.12 1.34L5.12 1.34Q2.94 1.34 1.98 1.34L1.98 1.34L1.98 1.34Q0.51 1.28 0.51 0.19L0.51 0.19L0.51 0.19Q0.51-0.38 0.90-1.41L0.90-1.41L0.90-1.41Q1.34-2.43 2.66-2.72L2.66-2.72L2.66-2.72Q3.97-3.01 4.99-2.18L4.99-2.18L4.99-2.18Q6.72-0.77 8.38-0.77L8.38-0.77L8.38-0.77Q10.05-0.77 11.81-1.41L11.81-1.41L11.81-1.41Q13.57-2.05 15.36-4.35L15.36-4.35L15.36-4.35Q20.54-11.26 26.24-33.47L26.24-33.47L26.24-33.47Q20.35-32.96 16.45-31.07L16.45-31.07L16.45-31.07Q12.54-29.18 12.54-26.11ZM32.64-28.45L32.64-28.45L32.64-28.45Q32.70-28.80 33.15-29.12L33.15-29.12L33.15-29.12Q33.60-29.44 34.82-29.44L34.82-29.44L34.82-29.44Q36.03-29.44 36.03-28.35L36.03-28.35L36.03-28.35Q36.03-27.58 35.71-26.56L35.71-26.56L35.71-26.56Q35.39-25.54 35.26-25.06L35.26-25.06L35.26-25.06Q35.14-24.58 34.53-22.62L34.53-22.62L34.53-22.62Q33.92-20.67 33.66-19.71L33.66-19.71L33.66-19.71Q33.41-18.62 32.93-18.62L32.93-18.62L32.93-18.62Q32.45-18.62 32.45-19.39L32.45-19.39L32.70-25.79L32.70-25.79Q32.70-26.24 32.64-27.17L32.64-27.17L32.64-27.17Q32.58-28.10 32.64-28.45ZM47.74-16.64L47.74-16.64L47.74-16.64Q47.74-16.19 47.04-14.69L47.04-14.69L47.04-14.69Q46.34-13.18 43.01-4.35L43.01-4.35L43.01-4.35Q45.31-7.17 48.83-10.88L48.83-10.88L48.83-10.88Q55.94-18.30 58.62-18.30L58.62-18.30L58.62-18.30Q59.20-18.30 59.74-17.98L59.74-17.98L59.74-17.98Q60.29-17.66 60.29-16.54L60.29-16.54L60.29-16.54Q60.29-15.42 59.58-14.05L59.58-14.05L59.58-14.05Q58.88-12.67 57.98-10.69L57.98-10.69L57.98-10.69Q57.09-8.70 56.77-8.19L56.77-8.19L56.77-8.19Q62.14-13.06 64.90-14.11L64.90-14.11L64.90-14.11Q67.65-15.17 68.54-15.17L68.54-15.17L68.54-15.17Q69.44-15.17 69.44-14.53L69.44-14.53L69.44-14.53Q69.44-14.14 68.48-12.67L68.48-12.67L68.48-12.67Q67.52-11.20 66.37-8.32L66.37-8.32L66.37-8.32Q65.22-5.44 65.09-4.29L65.09-4.29L65.09-4.29Q64.96-3.14 64.96-2.24L64.96-2.24L64.96-2.24Q64.96-1.34 65.47-0.77L65.47-0.77L65.47-0.77Q66.43 0.26 68.10-0.64L68.10-0.64L68.10-0.64Q69.76-1.54 72.74-4.22L72.74-4.22L72.74-4.22Q75.71-6.91 77.50-9.47L77.50-9.47L77.50-9.47Q77.76-9.79 78.11-9.63L78.11-9.63L78.11-9.63Q78.46-9.47 78.46-9.31L78.46-9.31L78.46-9.31Q78.46-9.15 78.34-8.96L78.34-8.96L78.34-8.96Q77.38-7.23 74.88-4.54L74.88-4.54L74.88-4.54Q70.78-0.13 68.03 0.90L68.03 0.90L68.03 0.90Q65.02 1.92 63.68 1.15L63.68 1.15L63.68 1.15Q62.34 0.38 62.02-0.58L62.02-0.58L62.02-0.58Q61.70-1.54 61.70-2.50L61.70-2.50L61.70-2.50Q61.70-5.50 62.88-8.51L62.88-8.51L62.88-8.51Q64.06-11.52 64.77-12.61L64.77-12.61L64.77-12.61Q62.34-11.58 60.61-10.05L60.61-10.05L60.61-10.05Q57.98-7.74 56.38-6.02L56.38-6.02L55.10-4.61L55.10-4.61Q54.53-3.20 53.09-3.01L53.09-3.01L53.09-3.01Q51.65-2.82 51.71-3.97L51.71-3.97L51.71-3.97Q51.84-5.18 54.08-9.41L54.08-9.41L54.08-9.41Q56.32-13.63 56.32-14.11L56.32-14.11L56.32-14.11Q56.32-14.59 55.81-14.59L55.81-14.59L55.81-14.59Q54.66-14.59 51.65-11.97L51.65-11.97L51.65-11.97Q49.66-10.11 45.79-4.96L45.79-4.96L45.79-4.96Q41.92 0.19 41.41 0.51L41.41 0.51L41.41 0.51Q39.10 1.66 38.53 1.66L38.53 1.66L38.53 1.66Q37.95 1.66 37.95 1.47L37.95 1.47L37.95 1.47Q37.95 1.28 38.14 0.90L38.14 0.90L38.14 0.90Q38.34 0.51 42.05-10.24L42.05-10.24L42.05-10.24Q40.64-8.06 39.49-6.91L39.49-6.91L39.49-6.91Q38.98-6.34 38.98-7.14L38.98-7.14L38.98-7.14Q38.98-7.94 39.42-8.51L39.42-8.51L39.42-8.51Q42.30-12.29 43.65-14.91L43.65-14.91L43.65-14.91Q44.03-17.15 45.18-17.54L45.18-17.54L45.18-17.54Q45.89-17.79 46.82-17.54L46.82-17.54L46.82-17.54Q47.74-17.28 47.74-16.64ZM132.80 1.60L132.80 1.60L132.80 1.60Q130.82 1.60 129.92-0.16L129.92-0.16L129.92-0.16Q129.02-1.92 129.02-4.64L129.02-4.64L129.02-4.64Q129.02-7.36 130.18-12.10L130.18-12.10L130.18-12.10Q127.94-12.29 122.56-12.99L122.56-12.99L122.56-12.99Q113.66-1.98 107.78 2.30L107.78 2.30L107.78 2.30Q102.72 6.08 97.28 6.08L97.28 6.08L97.28 6.08Q93.82 6.08 91.36 4.35L91.36 4.35L91.36 4.35Q88.90 2.62 88.90-0.77L88.90-0.77L88.90-0.77Q88.90-1.41 89.22-1.95L89.22-1.95L89.22-1.95Q89.54-2.50 89.86-2.24L89.86-2.24L89.86-2.24Q90.18-1.98 90.18-0.77L90.18-0.77L90.18-0.77Q90.18 1.41 91.87 2.50L91.87 2.50L91.87 2.50Q93.57 3.58 96 3.58L96 3.58L96 3.58Q101.25 3.58 106.34 0.16L106.34 0.16L106.34 0.16Q111.42-3.26 120.19-13.25L120.19-13.25L120.19-13.25Q110.78-14.40 107.78-14.40L107.78-14.40L107.78-14.40Q99.65-14.40 97.73-9.09L97.73-9.09L97.73-9.09Q97.47-8.38 97.47-7.78L97.47-7.78L97.47-7.78Q97.47-7.17 97.73-6.69L97.73-6.69L97.73-6.69Q97.98-6.21 97.82-5.92L97.82-5.92L97.82-5.92Q97.66-5.63 97.28-5.66L97.28-5.66L97.28-5.66Q96.90-5.70 96.64-6.08L96.64-6.08L96.64-6.08Q95.94-7.30 95.94-8.45L95.94-8.45L95.94-8.45Q95.94-12.42 97.38-14.30L97.38-14.30L97.38-14.30Q98.82-16.19 100.74-16.70L100.74-16.70L100.74-16.70Q103.04-17.34 106.11-17.34L106.11-17.34L106.11-17.34Q109.18-17.34 121.60-14.91L121.60-14.91L121.60-14.91Q125.06-18.88 132.10-27.68L132.10-27.68L132.10-27.68Q139.14-36.48 139.14-36.61L139.14-36.61L139.20-36.61L139.20-36.61Q139.26-36.67 139.52-36.80L139.52-36.80L139.52-36.80Q141.06-37.70 142.85-37.70L142.85-37.70L142.85-37.70Q143.49-37.70 143.49-37.06L143.49-37.06L143.49-37.06Q143.49-36.99 143.42-36.90L143.42-36.90L143.42-36.90Q143.36-36.80 143.30-36.64L143.30-36.64L143.30-36.64Q143.23-36.48 143.17-36.35L143.17-36.35L143.17-36.35Q137.02-26.18 133.63-13.44L133.63-13.44L133.44-12.99L135.04-12.93L135.04-12.93Q135.55-12.86 136.86-12.86L136.86-12.86L136.86-12.86Q138.18-12.86 139.65-13.47L139.65-13.47L139.65-13.47Q141.12-14.08 141.54-14.78L141.54-14.78L141.54-14.78Q141.95-15.49 142.27-15.10L142.27-15.10L142.27-15.10Q142.59-14.72 142.34-14.27L142.34-14.27L142.34-14.27Q141.63-12.99 139.84-12.42L139.84-12.42L139.84-12.42Q138.30-11.78 136.80-11.78L136.80-11.78L136.80-11.78Q135.30-11.78 134.85-11.78L134.85-11.78L133.12-11.84L133.12-11.84Q131.90-6.27 131.90-2.98L131.90-2.98L131.90-2.98Q131.90 0.32 133.70 0.32L133.70 0.32L133.70 0.32Q135.42 0.32 139.07-2.43L139.07-2.43L139.07-2.43Q142.72-5.18 145.92-9.54L145.92-9.54L145.92-9.54Q146.11-9.79 146.43-9.66L146.43-9.66L146.43-9.66Q146.75-9.54 146.75-9.34L146.75-9.34L146.75-9.34Q146.75-9.15 146.66-8.86L146.66-8.86L146.66-8.86Q146.56-8.58 145.66-7.42L145.66-7.42L145.66-7.42Q142.98-3.84 139.07-0.64L139.07-0.64L139.07-0.64Q136.26 1.60 132.80 1.60ZM136.32-30.59L136.32-30.59L136.32-30.59Q136.38-30.72 136.48-30.94L136.48-30.94L136.48-30.94Q136.58-31.17 136.64-31.30L136.64-31.30L136.64-31.30Q128.64-20.35 123.78-14.40L123.78-14.40L130.50-13.31L130.50-13.31Q132.29-20.29 136.32-30.59ZM163.01-17.28L163.01-17.28L163.01-17.28Q164.16-17.28 165.76-16.10L165.76-16.10L165.76-16.10Q167.36-14.91 167.55-13.76L167.55-13.76L167.55-13.76Q167.62-13.31 167.62-12.93L167.62-12.93L167.62-12.93Q167.62-10.05 164.80-6.75L164.80-6.75L164.80-6.75Q161.98-3.46 158.46-1.15L158.46-1.15L158.46-1.15Q153.02 2.56 147.65 2.56L147.65 2.56L147.65 2.56Q145.47 2.56 144.19 1.98L144.19 1.98L144.19 1.98Q143.17 1.47 146.75 1.47L146.75 1.47L146.75 1.47Q150.66 1.47 156.86-3.14L156.86-3.14L156.86-3.14Q162.88-7.36 164.16-13.25L164.16-13.25L164.16-13.25Q164.35-14.14 164.13-15.07L164.13-15.07L164.13-15.07Q163.90-16 163.01-16L163.01-16L163.01-16Q160.13-16 155.46-11.97L155.46-11.97L155.46-11.97Q153.47-10.30 151.39-7.49L151.39-7.49L151.39-7.49Q149.31-4.67 149.31-2.88L149.31-2.88L149.31-2.88Q149.31-2.62 149.41-2.34L149.41-2.34L149.41-2.34Q149.50-2.05 149.18-1.41L149.18-1.41L149.18-1.41Q148.35 0.26 146.82-1.60L146.82-1.60L146.82-1.60Q146.43-2.56 146.43-3.58L146.43-3.58L146.43-3.58Q146.43-6.53 147.33-9.79L147.33-9.79L147.33-9.79Q147.07-9.54 146.21-8.22L146.21-8.22L146.21-8.22Q145.34-6.91 144.19-5.63L144.19-5.63L144.19-5.63Q143.62-4.99 143.30-5.63L143.30-5.63L143.30-5.63Q143.23-5.76 143.23-5.98L143.23-5.98L143.23-5.98Q143.23-6.21 143.49-6.53L143.49-6.53L143.49-6.53Q148.48-12.74 149.31-14.59L149.31-14.59L149.31-14.59Q150.46-17.79 152.83-22.94L152.83-22.94L152.83-22.94Q155.20-28.10 157.18-31.17L157.18-31.17L157.18-31.17Q161.28-37.63 165.63-37.63L165.63-37.63L165.63-37.63Q166.40-37.63 167.23-37.44L167.23-37.44L168.51-36.99L168.51-36.99Q170.37-35.90 170.37-34.21L170.37-34.21L170.37-34.21Q170.37-32.51 169.34-30.53L169.34-30.53L169.34-30.53Q167.68-27.14 162.18-21.98L162.18-21.98L162.18-21.98Q156.67-16.83 151.49-13.25L151.49-13.25L151.49-13.25Q150.21-10.94 149.50-7.23L149.50-7.23L149.50-7.23Q151.87-10.75 155.68-14.02L155.68-14.02L155.68-14.02Q159.49-17.28 163.01-17.28ZM160.96-23.04L160.96-23.04L160.96-23.04Q168.58-30.72 168.58-34.43L168.58-34.43L168.58-34.43Q168.58-35.97 167.42-35.97L167.42-35.97L167.42-35.97Q166.53-35.97 164.99-34.82L164.99-34.82L164.99-34.82Q158.40-29.76 152.19-15.81L152.19-15.81L152.19-15.81Q156.54-18.69 160.96-23.04ZM192-37.44L192-37.44L192-37.44Q193.15-37.89 193.98-37.89L193.98-37.89L193.98-37.89Q196.80-37.89 197.70-36.35L197.70-36.35L197.70-36.35Q198.21-35.58 198.21-35.01L198.21-35.01L198.21-35.01Q198.21-30.66 190.91-24.06L190.91-24.06L190.91-24.06Q184.45-18.37 179.01-14.27L179.01-14.27L179.01-14.27Q177.22-10.24 175.30-4.35L175.30-4.35L175.30-4.35Q177.60-7.17 181.12-10.88L181.12-10.88L181.12-10.88Q188.22-18.24 191.04-18.24L191.04-18.24L191.04-18.24Q192.45-18.24 192.51-16.83L192.51-16.83L192.51-16.83Q192.64-15.36 191.90-14.02L191.90-14.02L191.90-14.02Q191.17-12.67 190.53-11.52L190.53-11.52L190.53-11.52Q187.52-6.53 187.52-2.62L187.52-2.62L187.52-2.62Q187.52-1.34 188.03-0.77L188.03-0.77L188.03-0.77Q188.93 0.26 190.59-0.64L190.59-0.64L190.59-0.64Q192.26-1.54 195.23-4.22L195.23-4.22L195.23-4.22Q198.21-6.91 200.06-9.47L200.06-9.47L200.06-9.47Q200.38-9.79 200.67-9.63L200.67-9.63L200.67-9.63Q200.96-9.47 200.96-9.31L200.96-9.31L200.96-9.31Q200.96-9.15 200.83-8.96L200.83-8.96L200.83-8.96Q199.87-7.23 197.38-4.58L197.38-4.58L197.38-4.58Q194.88-1.92 193.34-0.77L193.34-0.77L193.34-0.77Q190.40 1.47 187.71 1.47L187.71 1.47L187.71 1.47Q185.28 1.47 184.45-0.96L184.45-0.96L184.45-0.96Q184.26-1.54 184.26-2.34L184.26-2.34L184.26-2.34Q184.26-3.14 184.38-4.03L184.38-4.03L184.38-4.03Q184.70-6.72 187.78-12.42L187.78-12.42L187.78-12.42Q188.42-13.57 188.42-14.05L188.42-14.05L188.42-14.05Q188.42-14.53 187.90-14.53L187.90-14.53L187.90-14.53Q186.88-14.53 183.94-11.97L183.94-11.97L183.94-11.97Q181.95-10.11 178.08-4.96L178.08-4.96L178.08-4.96Q174.21 0.19 173.70 0.51L173.70 0.51L173.70 0.51Q171.39 1.66 170.85 1.66L170.85 1.66L170.85 1.66Q170.30 1.66 170.24 1.50L170.24 1.50L170.24 1.50Q170.18 1.34 170.30 1.09L170.30 1.09L170.30 1.09Q170.43 0.83 171.33-1.73L171.33-1.73L171.33-1.73Q174.34-10.24 175.42-12.99L175.42-12.99L175.42-12.99Q173.31-10.30 170.18-6.91L170.18-6.91L170.18-6.91Q169.66-6.40 169.66-7.14L169.66-7.14L169.66-7.14Q169.66-7.87 170.24-8.64L170.24-8.64L170.24-8.64Q170.82-9.41 172.64-11.62L172.64-11.62L172.64-11.62Q174.46-13.82 175.23-14.91L175.23-14.91L175.23-14.91Q174.66-15.23 174.62-15.81L174.62-15.81L174.62-15.81Q174.59-16.38 175.01-16.61L175.01-16.61L175.01-16.61Q175.42-16.83 176.38-16.45L176.38-16.45L176.38-16.45Q177.02-17.34 177.54-18.43L177.54-18.43L177.54-18.43Q185.15-34.82 192-37.44ZM195.58-32.64L195.58-32.64L195.58-32.64Q196.42-34.18 196.42-35.23L196.42-35.23L196.42-35.23Q196.42-36.29 195.49-36.29L195.49-36.29L195.49-36.29Q194.56-36.29 193.02-35.14L193.02-35.14L193.02-35.14Q185.98-29.76 180.29-17.15L180.29-17.15L180.29-17.15Q184.45-19.84 188.99-24.32L188.99-24.32L188.99-24.32Q193.54-28.80 195.58-32.64ZM205.38-17.73L205.38-17.73L205.38-17.73Q206.98-17.73 207.30-16.70L207.30-16.70L207.30-16.70Q207.42-16.13 207.14-15.58L207.14-15.58L207.14-15.58Q206.85-15.04 206.72-14.72L206.72-14.72L206.72-14.72Q206.59-14.40 206.53-14.21L206.53-14.21L206.53-14.21Q206.21-13.57 205.89-12.99L205.89-12.99L205.89-12.99Q202.24-5.70 202.05-3.71L202.05-3.71L202.05-3.71Q201.98-3.14 201.98-2.24L201.98-2.24L201.98-2.24Q201.98-1.34 202.50-0.77L202.50-0.77L202.50-0.77Q203.39 0.26 205.06-0.64L205.06-0.64L205.06-0.64Q206.72-1.54 209.70-4.22L209.70-4.22L209.70-4.22Q212.67-6.91 214.53-9.47L214.53-9.47L214.53-9.47Q214.78-9.79 215.10-9.63L215.10-9.63L215.10-9.63Q215.42-9.47 215.42-9.31L215.42-9.31L215.42-9.31Q215.42-9.15 215.30-8.96L215.30-8.96L215.30-8.96Q214.34-7.23 211.84-4.54L211.84-4.54L211.84-4.54Q207.74-0.13 204.99 0.90L204.99 0.90L204.99 0.90Q203.39 1.47 202.30 1.47L202.30 1.47L202.30 1.47Q199.74 1.47 198.91-0.96L198.91-0.96L198.91-0.96Q198.78-1.41 198.78-2.05L198.78-2.05L198.78-2.05Q198.78-4.29 200.83-8.83L200.83-8.83L200.83-8.83Q200.51-8.13 198.34-5.63L198.34-5.63L198.34-5.63Q197.76-4.99 197.44-5.63L197.44-5.63L197.44-5.63Q197.38-5.76 197.38-5.98L197.38-5.98L197.38-5.98Q197.38-6.21 197.63-6.53L197.63-6.53L197.63-6.53Q200.77-10.43 202.56-13.12L202.56-13.12L202.56-13.12Q202.43-13.44 202.69-13.95L202.69-13.95L202.69-13.95Q203.97-17.54 204.93-17.73L204.93-17.73L204.93-17.73Q205.12-17.73 205.38-17.73ZM210.43-26.24L210.43-26.24L209.92-24.19L209.92-24.19Q209.92-23.62 209.09-22.34L209.09-22.34L209.09-22.34Q208.26-21.06 207.81-21.06L207.81-21.06L207.81-21.06Q205.06-21.06 205.06-22.40L205.06-22.40L205.06-22.40Q205.06-22.66 207.81-24.77L207.81-24.77L208.90-25.60L208.90-25.60Q209.92-26.50 210.18-26.50L210.18-26.50L210.18-26.50Q210.43-26.50 210.43-26.24ZM214.34 0.64L214.34 0.64L214.34 0.64Q213.50 1.60 213.98 2.18L213.98 2.18L213.98 2.18Q214.46 2.75 215.07 2.75L215.07 2.75L215.07 2.75Q215.68 2.75 216.32 2.56L216.32 2.56L216.32 2.56Q219.07 1.73 221.66-0.74L221.66-0.74L221.66-0.74Q224.26-3.20 224.26-5.76L224.26-5.76L224.26-5.76Q224.26-7.17 221.12-8.83L221.12-8.83L221.12-8.83Q219.65-9.60 219.46-9.73L219.46-9.73L219.46-9.73Q217.73-10.88 217.28-12.03L217.28-12.03L217.28-12.03Q216.38-10.50 214.40-7.62L214.40-7.62L214.40-7.62Q213.95-7.10 213.57-7.39L213.57-7.39L213.57-7.39Q213.18-7.68 213.50-8.19L213.50-8.19L213.50-8.19Q216.13-11.78 216.96-14.21L216.96-14.21L216.96-14.21Q217.41-17.73 222.08-20.54L222.08-20.54L222.08-20.54Q226.75-23.36 230.59-23.36L230.59-23.36L230.59-23.36Q233.02-23.36 234.02-22.50L234.02-22.50L234.02-22.50Q235.01-21.63 235.01-20.80L235.01-20.80L235.01-20.80Q235.01-19.97 234.53-18.88L234.53-18.88L234.53-18.88Q234.05-17.79 232.58-16.83L232.58-16.83L232.58-16.83Q232.19-16.58 231.94-16.96L231.94-16.96L231.94-16.96Q231.81-17.34 232.48-18.02L232.48-18.02L232.48-18.02Q233.15-18.69 233.34-19.84L233.34-19.84L233.34-19.84Q233.54-20.99 232.32-21.25L232.32-21.25L232.32-21.25Q232.13-21.25 231.94-21.25L231.94-21.25L231.94-21.25Q229.44-21.25 225.70-19.39L225.70-19.39L225.70-19.39Q221.95-17.54 219.84-14.59L219.84-14.59L219.84-14.59Q219.01-13.50 219.01-12.38L219.01-12.38L219.01-12.38Q219.01-11.26 220.54-10.37L220.54-10.37L220.54-10.37Q221.18-9.98 222.72-9.15L222.72-9.15L222.72-9.15Q224.26-8.32 224.90-7.94L224.90-7.94L224.90-7.94Q225.54-7.55 226.43-6.72L226.43-6.72L226.43-6.72Q227.33-5.89 227.39-5.18L227.39-5.18L227.39-5.18Q227.71-3.26 225.60-0.96L225.60-0.96L225.60-0.96Q222.59 2.37 216.64 3.71L216.64 3.71L216.64 3.71Q215.30 4.03 213.92 4.03L213.92 4.03L213.92 4.03Q212.54 4.03 212.03 3.01L212.03 3.01L212.03 3.01Q211.84 2.75 211.84 2.21L211.84 2.21L211.84 2.21Q211.84 1.66 212.86 0.45L212.86 0.45L212.86 0.45Q213.82-0.51 215.94-1.41L215.94-1.41L215.94-1.41Q216.13-1.47 216.26-1.34L216.26-1.34L216.26-1.34Q216.38-1.22 216.32-1.02L216.32-1.02L216.32-1.02Q216.26-0.83 215.65-0.58L215.65-0.58L215.65-0.58Q215.04-0.32 214.34 0.64ZM254.59-37.44L254.59-37.44L254.59-37.44Q255.74-37.89 256.58-37.89L256.58-37.89L256.58-37.89Q259.39-37.89 260.29-36.35L260.29-36.35L260.29-36.35Q260.80-35.58 260.80-35.01L260.80-35.01L260.80-35.01Q260.80-30.66 253.50-24.06L253.50-24.06L253.50-24.06Q247.04-18.37 241.60-14.27L241.60-14.27L241.60-14.27Q239.81-10.24 237.89-4.35L237.89-4.35L237.89-4.35Q240.19-7.17 243.71-10.88L243.71-10.88L243.71-10.88Q250.82-18.24 253.63-18.24L253.63-18.24L253.63-18.24Q255.04-18.24 255.10-16.83L255.10-16.83L255.10-16.83Q255.23-15.36 254.50-14.02L254.50-14.02L254.50-14.02Q253.76-12.67 253.12-11.52L253.12-11.52L253.12-11.52Q250.11-6.53 250.11-2.62L250.11-2.62L250.11-2.62Q250.11-1.34 250.62-0.77L250.62-0.77L250.62-0.77Q251.52 0.26 253.18-0.64L253.18-0.64L253.18-0.64Q254.85-1.54 257.82-4.22L257.82-4.22L257.82-4.22Q260.80-6.91 262.66-9.47L262.66-9.47L262.66-9.47Q262.98-9.79 263.26-9.63L263.26-9.63L263.26-9.63Q263.55-9.47 263.55-9.31L263.55-9.31L263.55-9.31Q263.55-9.15 263.42-8.96L263.42-8.96L263.42-8.96Q262.46-7.23 259.97-4.58L259.97-4.58L259.97-4.58Q257.47-1.92 255.94-0.77L255.94-0.77L255.94-0.77Q252.99 1.47 250.30 1.47L250.30 1.47L250.30 1.47Q247.87 1.47 247.04-0.96L247.04-0.96L247.04-0.96Q246.85-1.54 246.85-2.34L246.85-2.34L246.85-2.34Q246.85-3.14 246.98-4.03L246.98-4.03L246.98-4.03Q247.30-6.72 250.37-12.42L250.37-12.42L250.37-12.42Q251.01-13.57 251.01-14.05L251.01-14.05L251.01-14.05Q251.01-14.53 250.50-14.53L250.50-14.53L250.50-14.53Q249.47-14.53 246.53-11.97L246.53-11.97L246.53-11.97Q244.54-10.11 240.67-4.96L240.67-4.96L240.67-4.96Q236.80 0.19 236.29 0.51L236.29 0.51L236.29 0.51Q233.98 1.66 233.44 1.66L233.44 1.66L233.44 1.66Q232.90 1.66 232.83 1.50L232.83 1.50L232.83 1.50Q232.77 1.34 232.90 1.09L232.90 1.09L232.90 1.09Q233.02 0.83 233.92-1.73L233.92-1.73L233.92-1.73Q236.93-10.24 238.02-12.99L238.02-12.99L238.02-12.99Q235.90-10.30 232.77-6.91L232.77-6.91L232.77-6.91Q232.26-6.40 232.26-7.14L232.26-7.14L232.26-7.14Q232.26-7.87 232.83-8.64L232.83-8.64L232.83-8.64Q233.41-9.41 235.23-11.62L235.23-11.62L235.23-11.62Q237.06-13.82 237.82-14.91L237.82-14.91L237.82-14.91Q237.25-15.23 237.22-15.81L237.22-15.81L237.22-15.81Q237.18-16.38 237.60-16.61L237.60-16.61L237.60-16.61Q238.02-16.83 238.98-16.45L238.98-16.45L238.98-16.45Q239.62-17.34 240.13-18.43L240.13-18.43L240.13-18.43Q247.74-34.82 254.59-37.44ZM258.18-32.64L258.18-32.64L258.18-32.64Q259.01-34.18 259.01-35.23L259.01-35.23L259.01-35.23Q259.01-36.29 258.08-36.29L258.08-36.29L258.08-36.29Q257.15-36.29 255.62-35.14L255.62-35.14L255.62-35.14Q248.58-29.76 242.88-17.15L242.88-17.15L242.88-17.15Q247.04-19.84 251.58-24.32L251.58-24.32L251.58-24.32Q256.13-28.80 258.18-32.64ZM276.61-18.62L276.61-18.62L276.61-18.62Q280.06-18.62 280.06-15.30L280.06-15.30L280.06-15.30Q280.06-13.57 279.10-12.48L279.10-12.48L279.10-12.48Q277.50-10.11 273.92-8.35L273.92-8.35L273.92-8.35Q270.34-6.59 267.84-6.40L267.84-6.40L267.84-6.40Q266.94-6.34 266.88-6.91L266.88-6.91L266.88-6.91Q266.82-7.17 267.04-7.23L267.04-7.23L267.04-7.23Q267.26-7.30 267.39-7.30L267.39-7.30L267.39-7.30Q268.86-7.42 271.17-8.70L271.17-8.70L271.17-8.70Q275.46-11.01 277.44-13.44L277.44-13.44L277.44-13.44Q278.27-14.59 278.27-15.65L278.27-15.65L278.27-15.65Q278.27-16.70 277.25-16.70L277.25-16.70L277.25-16.70Q276.42-16.70 275.01-16L275.01-16L275.01-16Q272-14.59 268.67-11.10L268.67-11.10L268.67-11.10Q265.34-7.62 264.32-4.29L264.32-4.29L264.32-4.29Q264-3.26 264-2.27L264-2.27L264-2.27Q264-1.28 264.83-0.38L264.83-0.38L264.83-0.38Q265.66 0.51 267.39 0.51L267.39 0.51L267.39 0.51Q269.31 0.51 271.81-0.51L271.81-0.51L271.81-0.51Q279.04-3.46 282.94-9.41L282.94-9.41L282.94-9.41Q283.33-9.92 283.65-9.60L283.65-9.60L283.65-9.60Q283.90-9.47 283.90-9.28L283.90-9.28L283.90-9.28Q283.90-9.09 283.71-8.83L283.71-8.83L283.71-8.83Q281.79-5.63 278.85-3.14L278.85-3.14L278.85-3.14Q273.15 1.73 267.78 1.73L267.78 1.73L267.78 1.73Q263.17 1.73 261.31-1.02L261.31-1.02L261.31-1.02Q260.61-2.11 260.61-3.65L260.61-3.65L260.61-3.65Q260.61-5.18 261.44-7.30L261.44-7.30L261.44-7.30Q263.04-10.94 268.29-14.78L268.29-14.78L268.29-14.78Q273.54-18.62 276.61-18.62ZM285.18 0.51L285.18 0.51L285.18 0.51Q282.88 1.66 282.24 1.66L282.24 1.66L282.24 1.66Q281.60 1.66 281.60 1.47L281.60 1.47L281.60 1.47Q281.60 1.28 281.70 1.06L281.70 1.06L281.70 1.06Q281.79 0.83 282.59-1.34L282.59-1.34L282.59-1.34Q283.39-3.52 284.61-6.85L284.61-6.85L284.61-6.85Q285.82-10.18 286.72-12.42L286.72-12.42L286.72-12.42Q285.25-10.82 283.26-8L283.26-8L283.26-8Q282.94-7.55 282.40-7.74L282.40-7.74L282.40-7.74Q281.86-7.94 282.75-9.09L282.75-9.09L282.75-9.09Q284.86-11.65 288.06-16.45L288.06-16.45L288.06-16.45Q287.10-16.96 287.10-17.44L287.10-17.44L287.10-17.44Q287.10-17.92 287.23-18.18L287.23-18.18L287.23-18.18Q287.55-18.94 288.38-18.50L288.38-18.50L288.38-18.50Q288.77-18.37 288.90-18.37L288.90-18.37L288.90-18.37Q291.71-25.79 295.94-31.62L295.94-31.62L295.94-31.62Q298.24-34.88 300.74-36.38L300.74-36.38L300.74-36.38Q303.23-37.89 305.41-37.89L305.41-37.89L305.41-37.89Q306.94-37.89 308.35-37.15L308.35-37.15L308.35-37.15Q309.76-36.42 309.76-34.75L309.76-34.75L309.76-34.75Q309.76-31.55 304.26-25.47L304.26-25.47L304.26-25.47Q301.31-22.34 297.66-19.71L297.66-19.71L297.66-19.71Q294.02-17.09 291.20-15.87L291.20-15.87L291.20-15.87Q288.70-10.37 286.78-4.35L286.78-4.35L290.94-9.79L290.94-9.79Q290.88-10.37 290.88-11.01L290.88-11.01L290.88-11.01Q290.88-12.93 291.71-13.38L291.71-13.38L291.71-13.38Q292.16-13.57 292.29-12.61L292.29-12.61L292.54-11.71L292.54-11.71Q297.47-17.47 299.65-18.50L299.65-18.50L299.65-18.50Q300.67-19.01 301.50-19.01L301.50-19.01L301.50-19.01Q302.34-19.01 302.98-18.56L302.98-18.56L302.98-18.56Q303.62-18.11 303.62-17.60L303.62-17.60L303.62-17.60Q303.62-16.70 302.14-16L302.14-16L302.14-16Q295.10-12.61 292.86-10.24L292.86-10.24L292.86-10.24Q294.40-4.86 295.87-1.79L295.87-1.79L295.87-1.79Q297.34 1.28 300.51 5.12L300.51 5.12L300.51 5.12Q303.68 8.96 306.30 8.96L306.30 8.96L306.30 8.96Q308.48 8.96 308.10 7.04L308.10 7.04L308.10 7.04Q307.84 5.31 307.04 4.06L307.04 4.06L307.04 4.06Q306.24 2.82 306.88 2.82L306.88 2.82L306.88 2.82Q307.46 2.88 308.10 3.39L308.10 3.39L308.10 3.39Q308.48 3.84 308.99 4.96L308.99 4.96L308.99 4.96Q309.50 6.08 309.50 6.85L309.50 6.85L309.50 6.85Q309.44 8.64 307.78 9.66L307.78 9.66L307.78 9.66Q306.11 10.69 304.58 10.69L304.58 10.69L304.58 10.69Q301.57 10.69 298.69 7.71L298.69 7.71L298.69 7.71Q295.81 4.74 293.89 0.51L293.89 0.51L293.89 0.51Q291.97-3.71 291.20-8.13L291.20-8.13L291.20-8.13Q290.05-6.53 288.64-4.29L288.64-4.29L288.64-4.29Q285.76 0.13 285.18 0.51ZM306.11-31.10L306.11-31.10L306.11-31.10Q307.84-33.98 307.84-35.14L307.84-35.14L307.84-35.14Q307.84-36.29 306.88-36.29L306.88-36.29L306.88-36.29Q305.92-36.29 304.45-35.14L304.45-35.14L304.45-35.14Q300.35-32 297.54-28L297.54-28L297.54-28Q294.72-24 291.97-18.05L291.97-18.05L291.97-18.05Q297.92-20.80 302.78-26.37L302.78-26.37L302.78-26.37Q304.38-28.22 306.11-31.10ZM311.62-2.82L311.62-2.82L311.62-1.73L311.62-1.73Q311.62-1.28 310.91-0.26L310.91-0.26L310.91-0.26Q310.21 0.77 309.82 0.77L309.82 0.77L309.82 0.77Q307.71 0.77 307.71-0.26L307.71-0.26L307.71-0.26Q307.71-0.77 308.99-1.79L308.99-1.79L308.99-1.79Q310.78-3.20 311.20-3.20L311.20-3.20L311.20-3.20Q311.62-3.20 311.62-2.82Z" fill="#4ab19a"></path></g></g><style>text {
  font-size: 64px;
  font-family: Arial Black;
  dominant-baseline: central;
  text-anchor: middle;
}</style></svg>